<?xml version="1.0" encoding="UTF-8" standalone="no"?>
<!-- Created with Inkscape (http://www.inkscape.org/) -->

<svg
   width="43.744061mm"
   height="51.699219mm"
   viewBox="0 0 43.74406 51.699218"
   version="1.1"
   id="svg86920"
   xmlns="http://www.w3.org/2000/svg"
   xmlns:svg="http://www.w3.org/2000/svg">
  <defs
     id="defs86917" />
  <g
     id="layer1"
     transform="translate(-167.50066,-179.20166)">
    <path
       id="path87078"
       style="font-size:10.5833px;-inkscape-font-specification:'Angie Pierced';fill:#000000;stroke-width:3.42262"
       d="M 99.136719 -0.09765625 C 97.034779 -0.093218876 94.988217 0.12378351 93.113281 0.99609375 C 89.220746 8.1267772 99.015203 5.6400466 102.04688 7.5800781 C 102.28952 21.863744 102.08085 36.178622 102.15039 50.474609 C 101.47215 53.419353 103.74577 58.486402 100.49023 59.808594 C 102.70538 62.023737 104.91962 64.237982 107.13477 66.453125 L 119.3418 54.248047 C 121.72131 51.485099 113.3846 54.757095 112.22266 52.228516 C 111.97963 38.796075 112.18868 25.331443 112.11914 11.886719 C 110.96022 7.6802558 113.77885 5.6693753 117.73828 6.6445312 C 121.47971 6.0823643 127.78085 8.5129176 128.73242 3.3222656 C 128.80677 1.9738436 127.82452 0.82252283 126.68945 0.25 C 120.26327 -0.32070866 113.73555 0.15798425 107.26953 0 C 104.6332 0.2431063 101.83921 -0.10336145 99.136719 -0.09765625 z M 12.3125 0.17578125 C 6.6635713 0.24901927 0.79885177 3.20676 0.390625 9.546875 C 0.28064075 39.790503 0.37398622 70.037798 0.34375 100.2832 C -0.68787205 104.80495 1.5005684 113.90833 6.9746094 107.91797 C 7.4701054 92.158775 7.0476575 76.33526 7.1875 60.550781 C 5.8072543 54.688923 12.071581 54.749055 16.117188 55.082031 C 19.880274 55.640078 24.966937 53.603894 27.509766 57.007812 C 28.004506 70.891718 27.585523 84.840847 27.724609 98.75 C 27.113724 102.50549 29.698703 109.22379 24.300781 109.84375 L 37.992188 123.5332 C 42.555665 118.96969 47.118163 114.40726 51.681641 109.84375 C 49.716248 110.09172 48.011829 108.38727 48.259766 106.42188 L 48.259766 15.191406 C 48.952137 9.140874 47.022357 1.6664645 40.037109 0.5078125 C 31.613563 0.082237697 23.144738 0.43596604 14.703125 0.3203125 C 13.921443 0.21455187 13.11949 0.16531868 12.3125 0.17578125 z M 72.890625 0.3984375 C 67.69868 0.24051489 62.256945 3.735497 61.998047 9.546875 C 61.888063 39.279058 61.979455 69.016041 61.949219 98.75 C 61.338296 102.50545 63.925076 109.22368 58.527344 109.84375 C 63.090821 114.40726 67.655273 118.96969 72.21875 123.5332 C 76.782265 118.96969 81.344688 114.40726 85.908203 109.84375 C 83.942811 110.09172 82.238391 108.38734 82.486328 106.42188 L 82.486328 24.398438 C 81.983084 17.907288 83.814638 10.902724 80.791016 4.9140625 C 79.030049 1.9024499 76.005792 0.49319107 72.890625 0.3984375 z M 106.66602 3.0273438 C 107.17882 3.0018968 107.88939 3.5152596 108.79688 4.984375 C 105.52738 10.08718 104.83458 3.1182258 106.66602 3.0273438 z M 38.703125 7.1015625 C 39.957437 7.1046362 41.087671 8.0403131 41.414062 10.587891 C 41.662037 12.553321 39.95758 14.257703 37.992188 14.009766 C 31.48163 13.175681 35.497661 7.0937076 38.703125 7.1015625 z M 72.929688 7.1015625 C 74.183968 7.1046419 75.314255 8.0403237 75.640625 10.587891 C 75.8886 12.553283 74.184142 14.257703 72.21875 14.009766 C 65.708356 13.175626 69.724305 7.093693 72.929688 7.1015625 z M 106.66602 9.671875 C 107.17882 9.6464254 107.88938 10.159783 108.79688 11.628906 C 105.52741 16.73177 104.83457 9.7627664 106.66602 9.671875 z M 140.28125 13.068359 C 139.69541 13.073111 139.0846 13.145231 138.45117 13.291016 C 133.60468 13.897894 127.15962 11.412579 124.11328 16.365234 C 123.28315 26.391603 123.97482 36.561016 123.74805 46.644531 C 122.7103 53.422585 130.14843 53.525763 134.86328 53.164062 C 139.36697 52.987937 146.81732 54.594682 147.00781 47.925781 C 148.37347 43.331728 144.36359 42.581139 140.74609 43.195312 C 136.67743 43.586531 134.88056 48.178 129.75586 46.517578 C 125.27549 46.873458 127.6745 40.958365 127.07227 38.214844 C 127.67593 35.47068 125.27393 29.553179 129.75195 29.904297 C 132.42249 29.262987 140.25631 30.174254 135.37891 33.226562 C 137.59405 35.441706 139.80829 37.657904 142.02344 39.873047 C 144.23858 37.657904 146.45283 35.441706 148.66797 33.226562 L 147.94141 33.123047 L 147.42383 32.8125 C 146.51149 29.508437 147.24403 25.824624 147.00781 22.367188 C 148.0973 17.428317 145.05167 13.029668 140.28125 13.068359 z M 13.673828 13.888672 C 14.523363 13.894689 15.358629 13.947333 16.117188 14.009766 C 19.880274 14.567813 24.966975 12.531553 27.509766 15.935547 C 28.001104 23.250029 27.58779 30.629021 27.724609 37.96875 C 27.786631 42.938867 21.880755 40.985422 18.794922 41.390625 C 15.031873 40.832578 9.9450965 42.870639 7.4023438 39.466797 C 6.9128949 32.834142 7.3228071 26.136342 7.1875 19.478516 C 6.0660197 14.715756 9.9925111 13.862597 13.673828 13.888672 z M 106.66602 16.316406 C 107.17882 16.290966 107.8894 16.80625 108.79688 18.275391 C 105.52735 23.378196 104.83457 16.407264 106.66602 16.316406 z M 141.55469 16.316406 C 142.06748 16.290966 142.7781 16.80625 143.68555 18.275391 C 140.41608 23.378196 139.72329 16.407264 141.55469 16.316406 z M 133.16211 19.751953 C 134.88775 19.763224 136.40616 20.173034 137.03906 21.597656 C 137.15944 22.551685 136.33293 23.379955 135.37891 23.259766 C 132.76604 22.755539 125.90036 24.957862 127.48633 20.351562 C 128.98462 20.238218 131.20638 19.739179 133.16211 19.751953 z M 38.703125 20.792969 C 39.957439 20.796033 41.08765 21.731709 41.414062 24.279297 C 41.662037 26.244765 39.957655 27.949109 37.992188 27.701172 C 31.48163 26.867033 35.497655 20.785137 38.703125 20.792969 z M 72.929688 20.792969 C 74.183971 20.796039 75.314223 21.731719 75.640625 24.279297 C 75.8886 26.244727 74.184218 27.949109 72.21875 27.701172 C 65.708356 26.866978 69.724295 20.785122 72.929688 20.792969 z M 106.66602 22.962891 C 107.17882 22.937444 107.88939 23.450807 108.79688 24.919922 C 105.52738 30.022727 104.83458 23.053773 106.66602 22.962891 z M 141.55469 22.962891 C 142.06748 22.937444 142.77809 23.450807 143.68555 24.919922 C 140.41614 30.022727 139.7233 23.053773 141.55469 22.962891 z M 152.20898 23.259766 L 152.20898 29.904297 L 164.98242 29.904297 L 164.98242 23.259766 L 152.20898 23.259766 z M 106.66602 29.607422 C 107.17882 29.581975 107.88939 30.097291 108.79688 31.566406 C 105.52738 36.669211 104.83458 29.698304 106.66602 29.607422 z M 141.55469 29.607422 C 142.06748 29.581975 142.77809 30.097291 143.68555 31.566406 C 140.41614 36.669211 139.7233 29.698304 141.55469 29.607422 z M 38.703125 34.482422 C 39.957438 34.485492 41.08766 35.421162 41.414062 37.96875 C 41.662037 39.934218 39.957617 41.638562 37.992188 41.390625 C 31.48163 40.556513 35.497658 34.474577 38.703125 34.482422 z M 72.929688 34.482422 C 74.183969 34.485496 75.314244 35.421183 75.640625 37.96875 C 75.8886 39.93418 74.18418 41.638562 72.21875 41.390625 C 65.708356 40.556458 69.724301 34.474565 72.929688 34.482422 z M 106.66602 36.253906 C 107.17882 36.228457 107.88938 36.741814 108.79688 38.210938 C 105.52741 43.313802 104.83457 36.344798 106.66602 36.253906 z M 106.66602 42.898438 C 107.17882 42.872991 107.88939 43.388307 108.79688 44.857422 C 105.52738 49.960227 104.83458 42.98932 106.66602 42.898438 z M 38.703125 48.173828 C 39.957438 48.176898 41.08766 49.112568 41.414062 51.660156 C 41.662037 53.625624 39.957617 55.329968 37.992188 55.082031 C 31.48163 54.247919 35.497658 48.165983 38.703125 48.173828 z M 72.929688 48.173828 C 74.183969 48.176902 75.314244 49.112589 75.640625 51.660156 C 75.8886 53.625586 74.18418 55.329968 72.21875 55.082031 C 65.708356 54.247865 69.724301 48.165972 72.929688 48.173828 z M 106.66602 49.544922 C 107.17882 49.519475 107.88939 50.032838 108.79688 51.501953 C 105.52738 56.604758 104.83458 49.635804 106.66602 49.544922 z M 106.66602 56.189453 C 107.17882 56.164006 107.88939 56.677369 108.79688 58.146484 C 105.52738 63.249289 104.83458 56.280335 106.66602 56.189453 z M 38.703125 61.863281 C 39.957438 61.866354 41.08766 62.802032 41.414062 65.349609 C 41.662037 67.315077 39.95758 69.019421 37.992188 68.771484 C 31.48163 67.937372 35.497658 61.855428 38.703125 61.863281 z M 72.929688 61.863281 C 74.183969 61.866356 75.314244 62.802042 75.640625 65.349609 C 75.8886 67.315039 74.184142 69.019421 72.21875 68.771484 C 65.708356 67.937345 69.724301 61.855423 72.929688 61.863281 z M 107.04492 68.167969 C 105.309 68.178831 103.64062 69.534654 102.72266 72.984375 L 102.72266 111.83008 C 102.04442 114.77482 104.31597 119.84176 101.06055 121.16406 C 103.27569 123.37921 105.49189 125.59345 107.70703 127.80859 L 120.99609 114.51758 C 118.57589 114.09214 114.54379 115.47625 112.79492 113.58398 C 112.55303 101.941 112.75824 90.266597 112.68945 78.611328 C 114.43527 73.765804 110.59944 68.145727 107.04492 68.167969 z M 107.23633 71.027344 C 107.74912 71.001899 108.45972 71.515251 109.36719 72.984375 C 106.09772 78.08718 105.40491 71.118218 107.23633 71.027344 z M 38.703125 75.554688 C 39.957438 75.557747 41.087628 76.493438 41.414062 79.041016 C 41.662037 81.006483 39.957655 82.710828 37.992188 82.462891 C 31.481657 81.628751 35.497658 75.54687 38.703125 75.554688 z M 72.929688 75.554688 C 74.183969 75.557751 75.314212 76.493459 75.640625 79.041016 C 75.8886 81.006446 74.184218 82.710828 72.21875 82.462891 C 65.708383 81.628697 69.724301 75.546858 72.929688 75.554688 z M 107.23633 77.671875 C 107.74912 77.646423 108.45971 78.161736 109.36719 79.630859 C 106.09778 84.733753 105.40492 77.762775 107.23633 77.671875 z M 140.85352 81.068359 C 140.26767 81.07311 139.65492 81.145231 139.02148 81.291016 C 134.17503 81.897894 127.73181 79.412579 124.68555 84.365234 C 123.85541 94.391603 124.54708 104.56102 124.32031 114.64453 C 123.28253 121.42258 130.71875 121.52576 135.43359 121.16406 C 139.93728 120.98794 147.38764 122.59468 147.57812 115.92578 C 148.94378 111.33173 144.93586 110.58114 141.31836 111.19531 C 137.2497 111.58653 135.45087 116.17796 130.32617 114.51758 C 125.84577 114.8735 128.24481 108.95837 127.64258 106.21484 C 128.24624 103.47068 125.84421 97.553557 130.32227 97.904297 C 132.9928 97.262987 140.82662 98.174254 135.94922 101.22656 C 138.16436 103.44171 140.37861 105.6579 142.59375 107.87305 L 149.24023 101.22656 L 148.51367 101.12305 L 147.99414 100.8125 C 147.08172 97.508475 147.81435 93.824624 147.57812 90.367188 C 148.66761 85.428351 145.62395 81.029675 140.85352 81.068359 z M 107.23633 84.318359 C 107.74912 84.292919 108.45973 84.806242 109.36719 86.275391 C 106.09769 91.378225 105.40491 84.409218 107.23633 84.318359 z M 142.125 84.318359 C 142.6378 84.292919 143.3484 84.806242 144.25586 86.275391 C 140.98633 91.378225 140.29357 84.409218 142.125 84.318359 z M 133.73242 87.751953 C 135.45807 87.763228 136.97842 88.173034 137.61133 89.597656 C 137.73171 90.551685 136.90325 91.379955 135.94922 91.259766 C 133.33636 90.755539 126.47259 92.9579 128.05859 88.351562 C 129.55687 88.238238 131.77669 87.739175 133.73242 87.751953 z M 38.703125 89.244141 C 39.957438 89.24721 41.08766 90.182881 41.414062 92.730469 C 41.662037 94.695936 39.957617 96.400281 37.992188 96.152344 C 31.48163 95.318232 35.497658 89.236296 38.703125 89.244141 z M 72.929688 89.244141 C 74.183969 89.247215 75.314244 90.182902 75.640625 92.730469 C 75.8886 94.695899 74.18418 96.400281 72.21875 96.152344 C 65.708356 95.318177 69.724301 89.236284 72.929688 89.244141 z M 107.23633 90.962891 C 107.74912 90.937446 108.45972 91.450798 109.36719 92.919922 C 106.09772 98.022727 105.40491 91.053765 107.23633 90.962891 z M 142.125 90.962891 C 142.6378 90.937446 143.34839 91.450798 144.25586 92.919922 C 140.98636 98.022727 140.29357 91.053765 142.125 90.962891 z M 152.20898 91.257812 L 152.20898 97.904297 L 164.98242 97.904297 L 164.98242 91.257812 L 152.20898 91.257812 z M 107.23633 97.609375 C 107.74912 97.58393 108.45972 98.097283 109.36719 99.566406 C 106.09772 104.66921 105.40491 97.700249 107.23633 97.609375 z M 142.125 97.609375 C 142.6378 97.58393 143.34839 98.097283 144.25586 99.566406 C 140.98636 104.66921 140.29357 97.700249 142.125 97.609375 z M 38.703125 102.93555 C 39.957435 102.93862 41.08766 103.87431 41.414062 106.42188 C 41.662037 108.38734 39.95758 110.09169 37.992188 109.84375 C 31.481657 109.00964 35.497667 102.9277 38.703125 102.93555 z M 72.929688 102.93555 C 74.183967 102.93862 75.314233 103.87433 75.640625 106.42188 C 75.8886 108.3873 74.184142 110.09169 72.21875 109.84375 C 65.708383 109.00961 69.724307 102.92769 72.929688 102.93555 z M 107.23633 104.25391 C 107.74912 104.22845 108.45971 104.74181 109.36719 106.21094 C 106.09778 111.31383 105.40492 104.34481 107.23633 104.25391 z M 107.23633 110.89844 C 107.74912 110.87299 108.45972 111.3883 109.36719 112.85742 C 106.09772 117.96023 105.40491 110.98931 107.23633 110.89844 z M 107.23633 117.54492 C 107.74912 117.51948 108.45972 118.03283 109.36719 119.50195 C 106.09772 124.60476 105.40491 117.6358 107.23633 117.54492 z M 78.957031 122.3418 C 74.518637 122.27291 74.13777 131.43141 67.566406 129.19336 C 61.481556 134.44365 70.437693 135.58814 73.726562 136.52539 C 73.969586 146.37877 73.760157 156.26321 73.830078 166.12891 C 73.151842 169.07365 75.423389 174.14059 72.167969 175.46289 L 78.814453 182.10742 L 91.019531 169.90234 C 93.399046 167.1394 85.064284 170.41139 83.902344 167.88281 C 83.658942 159.90363 83.868749 151.8919 83.798828 143.90039 C 84.435074 141.24508 82.0633 135.68547 86.09375 135.58984 C 89.83518 135.02768 96.138272 137.45823 97.089844 132.26758 C 97.113239 129.50588 94.346213 128.67281 92.109375 128.94531 C 87.65369 129.09056 82.49241 129.89378 82.335938 123.76172 C 80.973492 122.768 79.878207 122.35609 78.957031 122.3418 z M 78.34375 125.32617 C 78.856549 125.30072 79.56909 125.81409 80.476562 127.2832 C 77.207094 132.38601 76.512326 125.41705 78.34375 125.32617 z M 78.34375 131.9707 C 78.856549 131.94526 79.56909 132.45862 80.476562 133.92773 C 77.207094 139.03054 76.512326 132.06159 78.34375 131.9707 z M 58.066406 135.36719 C 57.480563 135.37194 56.869759 135.44406 56.236328 135.58984 C 51.389878 136.19672 44.944699 133.71137 41.898438 138.66406 C 41.068302 148.69039 41.759975 158.85984 41.533203 168.94336 C 40.49542 175.72145 47.93359 175.82459 52.648438 175.46289 C 57.152123 175.28676 64.602481 176.89355 64.792969 170.22461 C 66.158625 165.63056 62.148749 164.87993 58.53125 165.49414 C 54.462589 165.88536 52.665715 170.47679 47.541016 168.81641 C 43.06065 169.17232 45.457661 163.25719 44.855469 160.51367 C 45.459135 157.76951 43.05905 151.85238 47.537109 152.20312 C 50.207648 151.56181 58.03959 152.47312 53.162109 155.52539 C 55.377253 157.74053 57.59345 159.95673 59.808594 162.17188 L 66.453125 155.52539 L 65.726562 155.42188 L 65.207031 155.11133 C 64.294653 151.80727 65.029189 148.12345 64.792969 144.66602 C 65.882454 139.72715 62.836841 135.3285 58.066406 135.36719 z M 111.96094 135.36719 C 111.37509 135.37194 110.76234 135.44406 110.12891 135.58984 C 105.28246 136.19672 98.83923 133.71137 95.792969 138.66406 C 94.973265 148.26455 95.646947 158.00665 95.427734 167.66406 C 95.502078 170.19189 94.386201 177.73439 98.646484 174.52734 C 98.889886 166.37766 98.680079 158.19716 98.75 150.03516 C 99.145074 147.2205 97.164298 141.32463 101.94336 142.23633 C 105.05229 142.07196 110.0361 141.52171 108.71875 146.19336 C 108.04051 149.1381 110.31206 154.20309 107.05664 155.52539 L 113.70312 162.17188 L 120.34766 155.52539 L 119.62109 155.42188 L 119.10156 155.11133 C 118.18922 151.80727 118.92177 148.12345 118.68555 144.66602 C 119.77503 139.72711 116.73139 135.32849 111.96094 135.36719 z M 29.630859 135.37109 C 28.975818 135.36576 28.29729 135.4364 27.607422 135.58984 C 23.025236 135.88737 15.540123 133.92089 14.953125 140.57422 C 14.401087 133.98934 3.173121 134.04881 0.36523438 138.66406 C -0.45443177 148.26455 0.2192126 158.00665 0 167.66406 C 0.074343307 170.19185 -1.0414957 177.73435 3.21875 174.52734 C 3.5301831 164.09188 3.1147261 153.60542 3.4257812 143.16992 C 5.8573025 141.67981 10.755979 141.68083 13.1875 143.16992 C 13.430902 151.31964 13.221094 159.50206 13.291016 167.66406 C 13.365359 170.19185 12.24952 177.73435 16.509766 174.52734 C 16.821199 164.09188 16.405742 153.60542 16.716797 143.16992 C 19.148318 141.67981 24.046994 141.68083 26.478516 143.16992 C 26.721917 150.80816 26.51211 158.47835 26.582031 166.12891 C 25.903795 169.07365 28.175456 174.1407 24.919922 175.46289 L 31.566406 182.10742 L 38.210938 175.46289 C 37.582478 175.5022 36.831557 175.19568 36.654297 174.52734 C 36.412785 164.41752 36.617616 154.2764 36.548828 144.1543 C 37.69556 139.15954 34.216147 135.4084 29.630859 135.37109 z M 140.81445 135.60547 C 139.44082 135.61889 137.92224 136.50143 136.39648 138.66406 C 135.50712 148.33504 136.38929 158.16716 135.92773 167.88281 C 133.49618 169.37285 128.59949 169.37187 126.16797 167.88281 C 125.92457 159.73313 126.13242 151.55064 126.0625 143.38867 C 125.98816 140.86085 127.10403 133.31827 122.84375 136.52539 C 122.60224 146.29426 122.80902 156.09385 122.74023 165.875 C 121.74996 170.96531 124.48386 176.77265 130.4043 175.46289 C 133.86226 175.19946 137.41837 174.83827 136.03125 179.41992 C 135.35301 182.36467 137.6246 187.43164 134.36914 188.75391 L 141.01562 195.39844 C 143.23077 193.18329 145.44501 190.96905 147.66016 188.75391 C 147.0317 188.79321 146.28078 188.48669 146.10352 187.81836 C 145.86163 174.13072 146.06879 160.41082 146 146.71094 C 147.30558 142.17046 144.61214 135.56837 140.81445 135.60547 z M 31.095703 138.61719 C 31.608506 138.59174 32.319081 139.1051 33.226562 140.57422 C 29.957064 145.67702 29.264263 138.70807 31.095703 138.61719 z M 59.337891 138.61719 C 59.850692 138.59174 60.56323 139.1051 61.470703 140.57422 C 58.201205 145.67702 57.506458 138.70806 59.337891 138.61719 z M 78.34375 138.61719 C 78.856549 138.59174 79.56909 139.1051 80.476562 140.57422 C 77.207094 145.67702 76.512326 138.70807 78.34375 138.61719 z M 113.23242 138.61719 C 113.74521 138.59174 114.45582 139.1051 115.36328 140.57422 C 112.09387 145.67702 111.40103 138.70807 113.23242 138.61719 z M 140.54492 138.61719 C 141.05771 138.59174 141.76832 139.1051 142.67578 140.57422 C 139.40637 145.67702 138.71353 138.70807 140.54492 138.61719 z M 50.947266 142.05078 C 52.672915 142.06205 54.191296 142.47186 54.824219 143.89648 C 54.944597 144.85051 54.116138 145.67878 53.162109 145.55859 C 50.549246 145.05437 43.685519 147.25669 45.271484 142.65039 C 46.7698 142.53705 48.991529 142.03801 50.947266 142.05078 z M 31.095703 145.26172 C 31.608507 145.23628 32.31909 145.74961 33.226562 147.21875 C 29.957035 152.32156 29.264262 145.35258 31.095703 145.26172 z M 59.337891 145.26172 C 59.85069 145.23628 60.563247 145.7496 61.470703 147.21875 C 58.201176 152.32158 57.506465 145.35258 59.337891 145.26172 z M 78.34375 145.26172 C 78.856547 145.23628 79.569106 145.74961 80.476562 147.21875 C 77.207064 152.32156 76.512333 145.35258 78.34375 145.26172 z M 113.23242 145.26172 C 113.74521 145.23628 114.45583 145.74961 115.36328 147.21875 C 112.09381 152.32156 111.40102 145.35258 113.23242 145.26172 z M 140.54492 145.26172 C 141.05771 145.23628 141.76833 145.74961 142.67578 147.21875 C 139.40631 152.32156 138.71352 145.35258 140.54492 145.26172 z M 31.095703 151.9082 C 31.608506 151.88276 32.319081 152.39612 33.226562 153.86523 C 29.957064 158.96804 29.264263 151.99909 31.095703 151.9082 z M 59.337891 151.9082 C 59.850692 151.88276 60.56323 152.39611 61.470703 153.86523 C 58.201205 158.96804 57.506458 151.99908 59.337891 151.9082 z M 78.34375 151.9082 C 78.856549 151.88276 79.56909 152.39612 80.476562 153.86523 C 77.207094 158.96804 76.512326 151.99909 78.34375 151.9082 z M 113.23242 151.9082 C 113.74521 151.88276 114.45582 152.39612 115.36328 153.86523 C 112.09387 158.96804 111.40103 151.99909 113.23242 151.9082 z M 140.54492 151.9082 C 141.05771 151.88276 141.76832 152.39612 142.67578 153.86523 C 139.40637 158.96804 138.71353 151.99909 140.54492 151.9082 z M 31.095703 158.55273 C 31.608506 158.52729 32.319081 159.04065 33.226562 160.50977 C 29.957064 165.61257 29.264263 158.64362 31.095703 158.55273 z M 78.34375 158.55273 C 78.856549 158.52729 79.56909 159.04065 80.476562 160.50977 C 77.207094 165.61257 76.512326 158.64362 78.34375 158.55273 z M 140.54492 158.55273 C 141.05771 158.52729 141.76832 159.04065 142.67578 160.50977 C 139.40637 165.61257 138.71353 158.64362 140.54492 158.55273 z M 31.095703 165.19727 C 31.608506 165.17182 32.319081 165.68713 33.226562 167.15625 C 29.957064 172.25906 29.264263 165.28815 31.095703 165.19727 z M 78.34375 165.19727 C 78.856549 165.17182 79.56909 165.68713 80.476562 167.15625 C 77.207094 172.25906 76.512326 165.28815 78.34375 165.19727 z M 140.54492 165.19727 C 141.05771 165.17182 141.76832 165.68713 142.67578 167.15625 C 139.40637 172.25906 138.71353 165.28815 140.54492 165.19727 z M 31.095703 171.84375 C 31.608507 171.81831 32.31909 172.33164 33.226562 173.80078 C 29.957035 178.90359 29.264262 171.93461 31.095703 171.84375 z M 78.34375 171.84375 C 78.856547 171.81831 79.569106 172.33164 80.476562 173.80078 C 77.207064 178.90359 76.512333 171.93461 78.34375 171.84375 z M 140.54492 171.84375 C 141.05771 171.81831 141.76833 172.33164 142.67578 173.80078 C 139.40631 178.90359 138.71352 171.93461 140.54492 171.84375 z M 140.54492 178.48828 C 141.05771 178.46283 141.76832 178.97815 142.67578 180.44727 C 139.40637 185.55007 138.71353 178.57916 140.54492 178.48828 z M 140.54492 185.13477 C 141.05771 185.10932 141.76832 185.62268 142.67578 187.0918 C 139.40637 192.1946 138.71353 185.22565 140.54492 185.13477 z "
       transform="matrix(0.26458333,0,0,0.26458333,167.50066,179.20166)" />
  </g>
</svg>
